<?xml version="1.0" encoding="UTF-8"?>
<svg id="uuid-16b3abd8-7a16-4306-9768-7ad6d97c4af7" data-name="Layer 1" xmlns="http://www.w3.org/2000/svg" xmlns:xlink="http://www.w3.org/1999/xlink" viewBox="0 0 141.73 141.73">
  <defs>
    <style>
      .uuid-c4994836-767c-4e60-9ba2-21d0dcd68fd3 {
        fill: #13343b;
      }

      .uuid-f339361e-b3cc-4653-95b5-0fea97b4eab3 {
        fill: url(#uuid-2f0f29c2-a8f9-4e45-ba1a-14a800c11e81);
        filter: url(#uuid-7baae223-4767-4c59-9f91-dcdc0e6a9d12);
      }
    </style>
    <radialGradient id="uuid-2f0f29c2-a8f9-4e45-ba1a-14a800c11e81" cx="168.25" cy="-10.45" fx="52.13" fy="74.31" r="241.01" gradientUnits="userSpaceOnUse">
      <stop offset=".22" stop-color="#e1b381"/>
      <stop offset=".36" stop-color="#b29671"/>
      <stop offset=".58" stop-color="#6e6c5a"/>
      <stop offset=".78" stop-color="#3c4e49"/>
      <stop offset=".92" stop-color="#1d3b3e"/>
      <stop offset="1" stop-color="#12343b"/>
    </radialGradient>
    <filter id="uuid-7baae223-4767-4c59-9f91-dcdc0e6a9d12" data-name="drop-shadow-6" filterUnits="userSpaceOnUse">
      <feOffset dx=".85" dy=".85"/>
      <feGaussianBlur result="uuid-82bc0af1-cc59-4921-873b-fff458413cf7" stdDeviation="0"/>
      <feFlood flood-color="#000" flood-opacity=".15"/>
      <feComposite in2="uuid-82bc0af1-cc59-4921-873b-fff458413cf7" operator="in"/>
      <feComposite in="SourceGraphic"/>
    </filter>
  </defs>
  <rect class="uuid-f339361e-b3cc-4653-95b5-0fea97b4eab3" x="0" y="0" width="141.73" height="141.73" rx="70.87" ry="70.87"/>
  <g>
    <path class="uuid-c4994836-767c-4e60-9ba2-21d0dcd68fd3" d="M39.95,66.45l-10.78,4.87c-2.32,1.05-2.4,4.32-.12,5.47l8.42,4.25c1.14,.58,1.8,1.81,1.64,3.08l-.05,.38c-.26,2.1-2.54,3.3-4.42,2.31l-18.27-9.58c-1.12-.59-1.76-1.81-1.6-3.07l.16-1.29c.13-1.04,.79-1.94,1.74-2.37l20.75-9.59c2.16-1,4.58,.77,4.28,3.14h0c-.13,1.05-.8,1.95-1.76,2.38Z"/>
    <path class="uuid-c4994836-767c-4e60-9ba2-21d0dcd68fd3" d="M101.78,81.04l10.78-4.87c2.32-1.05,2.4-4.32,.12-5.47l-8.42-4.25c-1.14-.58-1.8-1.81-1.64-3.08l.05-.38c.26-2.1,2.54-3.3,4.42-2.31l18.27,9.58c1.12,.59,1.76,1.81,1.6,3.07l-.16,1.29c-.13,1.04-.79,1.94-1.74,2.37l-20.75,9.59c-2.16,1-4.58-.77-4.28-3.14h0c.13-1.05,.8-1.95,1.76-2.38Z"/>
    <path class="uuid-c4994836-767c-4e60-9ba2-21d0dcd68fd3" d="M79.2,81c1.31-5.02,5.1-5.72,8.19-9.88,.93-1.2,1.6-2.31,1.85-3.28,.6-2.32-.64-5.54-2-8.1-.83-1.55-.42-3.47,.95-4.56l.04-.03c1.7-1.35,4.2-.92,5.36,.92,2.55,4.07,4.38,8.41,3.01,13.68-1.42,5.47-4.89,5.77-8.22,10.03-.95,1.28-1.6,2.31-1.81,3.13-.51,1.95-.21,4.84,1.51,7.88,.87,1.54,.5,3.49-.87,4.61h0c-1.72,1.4-4.3,.96-5.43-.95-2.42-4.08-3.8-8.69-2.56-13.45Z"/>
    <path class="uuid-c4994836-767c-4e60-9ba2-21d0dcd68fd3" d="M62.17,76.58c1.31-5.02,5.1-5.72,8.19-9.88,.93-1.2,1.6-2.31,1.85-3.28,.6-2.32-.64-5.54-2-8.1-.83-1.55-.42-3.47,.95-4.56l.04-.03c1.7-1.35,4.2-.92,5.36,.92,2.55,4.07,4.38,8.41,3.01,13.68s-4.89,5.77-8.22,10.03c-.95,1.28-1.6,2.31-1.81,3.13-.51,1.95-.21,4.84,1.51,7.88,.87,1.54,.5,3.49-.87,4.61h0c-1.72,1.4-4.3,.96-5.43-.95-2.42-4.08-3.8-8.69-2.56-13.45Z"/>
    <path class="uuid-c4994836-767c-4e60-9ba2-21d0dcd68fd3" d="M45.13,72.15c1.31-5.02,5.1-5.72,8.19-9.88,.93-1.2,1.6-2.31,1.85-3.28,.6-2.32-.64-5.54-2-8.1-.83-1.55-.42-3.47,.95-4.56l.04-.03c1.7-1.35,4.2-.92,5.36,.92,2.55,4.07,4.38,8.41,3.01,13.68-1.42,5.47-4.89,5.77-8.22,10.03-.95,1.28-1.6,2.31-1.81,3.13-.51,1.95-.21,4.84,1.51,7.88,.87,1.54,.5,3.49-.87,4.61h0c-1.72,1.4-4.3,.96-5.43-.95-2.42-4.08-3.8-8.69-2.56-13.45Z"/>
  </g>
</svg>