<?xml version="1.0" encoding="utf-8"?>
<!-- Generator: Adobe Illustrator 27.0.1, SVG Export Plug-In . SVG Version: 6.00 Build 0)  -->
<svg version="1.1" xmlns="http://www.w3.org/2000/svg" xmlns:xlink="http://www.w3.org/1999/xlink" x="0px" y="0px"
	 viewBox="0 0 141.7 141.7" style="enable-background:new 0 0 141.7 141.7;" xml:space="preserve">
<style type="text/css">
	.st0{fill:#D8C98E;}
	.st1{fill:#E6E0BA;}
	.st2{fill:#007776;}
	.st3{fill:#E8D9C4;}
	.st4{fill:#DCB55A;}
	.st5{opacity:0.15;}
	.st6{fill:#939598;}
	.st7{fill:#FFFFFF;}
	.st8{fill:#273326;}
	.st9{fill:#93BC61;}
	.st10{fill:#DDB65C;}
	.st11{fill:#DDB75D;}
	.st12{fill:#DDB75E;}
	.st13{fill:#DEB75F;}
	.st14{fill:#DEB860;}
	.st15{fill:#DEB861;}
	.st16{fill:#DEB961;}
	.st17{fill:#DEB962;}
	.st18{fill:#DFB963;}
	.st19{fill:#DFBA64;}
	.st20{fill:#DFBA65;}
	.st21{fill:#DFBB66;}
	.st22{fill:#DFBB67;}
	.st23{fill:#E0BB67;}
	.st24{fill:#E0BC68;}
	.st25{fill:#E0BC69;}
	.st26{fill:#E0BC6A;}
	.st27{fill:#E0BD6B;}
	.st28{fill:#E1BD6B;}
	.st29{fill:#E1BE6C;}
	.st30{fill:#E1BE6D;}
	.st31{fill:#E1BE6E;}
	.st32{fill:#E1BF6F;}
	.st33{fill:#E2C070;}
	.st34{fill:#E2C071;}
	.st35{fill:#E2C072;}
	.st36{fill:#E2C173;}
	.st37{fill:#E3C274;}
	.st38{fill:#E3C275;}
	.st39{fill:#E3C276;}
	.st40{fill:#E3C377;}
	.st41{fill:#E4C478;}
	.st42{fill:#E4C479;}
	.st43{fill:#E4C47A;}
	.st44{fill:#E4C57A;}
	.st45{fill:#E4C57B;}
	.st46{fill:#E5C67C;}
	.st47{fill:#E5C67D;}
	.st48{fill:#E5C77E;}
	.st49{fill:#E5C77F;}
	.st50{fill:#E6C880;}
	.st51{fill:#E6C881;}
	.st52{fill:#E6C982;}
	.st53{fill:#E6C983;}
	.st54{fill:#E7CA84;}
	.st55{fill:#E7CA85;}
	.st56{fill:#E7CB86;}
	.st57{fill:#E8CB87;}
	.st58{fill:#E8CC87;}
	.st59{fill:#E8CC88;}
	.st60{fill:#E8CC89;}
	.st61{fill:#E8CD8A;}
	.st62{fill:#E9CD8A;}
	.st63{fill:#E9CE8B;}
	.st64{fill:#E9CE8C;}
	.st65{fill:#E9CE8D;}
	.st66{fill:#E9CF8E;}
	.st67{fill:#EACF8E;}
	.st68{fill:#EAD08F;}
	.st69{fill:#EAD090;}
	.st70{fill:#EAD191;}
	.st71{fill:#EAD192;}
	.st72{fill:#EBD293;}
	.st73{fill:#EBD294;}
	.st74{fill:#EBD395;}
	.st75{fill:#EBD396;}
	.st76{fill:#ECD497;}
	.st77{fill:#ECD498;}
	.st78{fill:#ECD599;}
	.st79{fill:#ECD59A;}
	.st80{fill:#ECD69A;}
	.st81{fill:#EDD69B;}
	.st82{fill:#EDD69C;}
	.st83{fill:#EDD79D;}
	.st84{fill:#EDD79E;}
	.st85{fill:#EDD89F;}
	.st86{fill:#EED89F;}
	.st87{fill:#EED8A0;}
	.st88{fill:#EED9A1;}
	.st89{fill:#EED9A2;}
	.st90{fill:#EEDAA3;}
	.st91{fill:#EEDAA4;}
	.st92{fill:#EFDBA4;}
	.st93{fill:#EFDBA5;}
	.st94{fill:#EFDBA6;}
	.st95{fill:#EFDCA7;}
	.st96{fill:#EFDCA8;}
	.st97{fill:#F0DDA9;}
	.st98{fill:#F0DDAA;}
	.st99{fill:#F0DEAA;}
	.st100{fill:#F0DEAB;}
	.st101{fill:#F0DFAC;}
	.st102{fill:#F1DFAD;}
	.st103{fill:#F1DFAE;}
	.st104{fill:#F1E0AF;}
	.st105{fill:#F1E0B0;}
	.st106{fill:#F2E1B0;}
	.st107{fill:#F2E1B1;}
	.st108{fill:#F2E2B2;}
	.st109{fill:#F2E2B3;}
	.st110{fill:#F2E3B4;}
	.st111{fill:#F3E3B5;}
	.st112{fill:#F3E3B6;}
	.st113{fill:#F3E4B7;}
	.st114{fill:#F3E5B8;}
	.st115{fill:#F4E5B9;}
	.st116{fill:#F4E6BA;}
	.st117{fill:#F4E6BB;}
	.st118{fill:#F4E7BC;}
	.st119{fill:#F4E7BD;}
	.st120{fill:#F5E7BE;}
	.st121{fill:#F5E8BF;}
	.st122{fill:#F5E9C0;}
	.st123{fill:#F5E9C1;}
	.st124{fill:#F6EAC2;}
	.st125{fill:#F6EAC3;}
	.st126{fill:#F6EBC4;}
	.st127{fill:#F6EBC5;}
	.st128{fill:#F6ECC6;}
	.st129{fill:#F7ECC6;}
	.st130{fill:#F7ECC7;}
	.st131{fill:#F7EDC8;}
	.st132{fill:#F7EDC9;}
	.st133{fill:#F8EECA;}
	.st134{fill:#F8EECB;}
	.st135{fill:#F8EFCC;}
	.st136{fill:#F8EFCD;}
	.st137{fill:#F9F0CE;}
	.st138{fill:#F9F0CF;}
	.st139{fill:#F9F1CF;}
	.st140{fill:#F9F1D0;}
	.st141{fill:#FAF2D1;}
	.st142{fill:#FAF2D2;}
	.st143{fill:#FAF3D3;}
	.st144{fill:#F9F2D2;}
	.st145{fill:#F8F1D1;}
	.st146{fill:#F8F1D0;}
	.st147{fill:#F7F0CF;}
	.st148{fill:#F6EFCF;}
	.st149{fill:#F6EFCE;}
	.st150{fill:#F5EECD;}
	.st151{fill:#F4EECC;}
	.st152{fill:#F3EDCB;}
	.st153{fill:#F3ECCA;}
	.st154{fill:#F2ECC9;}
	.st155{fill:#F1EBC8;}
	.st156{fill:#F1EAC7;}
	.st157{fill:#F0EAC7;}
	.st158{fill:#F0E9C6;}
	.st159{fill:#EFE9C5;}
	.st160{fill:#EEE8C4;}
	.st161{fill:#EEE7C3;}
	.st162{fill:#EDE7C2;}
	.st163{fill:#ECE6C1;}
	.st164{fill:#ECE6C0;}
	.st165{fill:#EBE5C0;}
	.st166{fill:#EBE5BF;}
	.st167{fill:#EAE4BE;}
	.st168{fill:#E9E3BD;}
	.st169{fill:#E9E3BC;}
	.st170{fill:#E8E2BB;}
	.st171{fill:#E7E2BA;}
	.st172{fill:#E7E1B9;}
	.st173{fill:#E6E0B9;}
	.st174{fill:#E5E0B8;}
	.st175{fill:#E5DFB7;}
	.st176{fill:#E4DFB6;}
	.st177{fill:#E4DEB5;}
	.st178{fill:#E3DEB4;}
	.st179{fill:#E2DDB3;}
	.st180{fill:#E1DCB2;}
	.st181{fill:#E0DBB1;}
	.st182{fill:#E0DBB0;}
	.st183{fill:#DFDAAF;}
	.st184{fill:#DEDAAE;}
	.st185{fill:#DED9AE;}
	.st186{fill:#DDD9AD;}
	.st187{fill:#DDD8AC;}
	.st188{fill:#DCD7AB;}
	.st189{fill:#DBD7AA;}
	.st190{fill:#DBD6A9;}
	.st191{fill:#DAD6A9;}
	.st192{fill:#DAD5A8;}
	.st193{fill:#D9D5A7;}
	.st194{fill:#D8D4A6;}
	.st195{fill:#D8D4A5;}
	.st196{fill:#D7D3A4;}
	.st197{fill:#D6D3A4;}
	.st198{fill:#D7D2A3;}
	.st199{fill:#D7D2A2;}
	.st200{fill:#D7D2A1;}
	.st201{fill:#D7D1A0;}
	.st202{fill:#D7D19F;}
	.st203{fill:#D7D09E;}
	.st204{fill:#D7D09D;}
	.st205{fill:#D7D09C;}
	.st206{fill:#D7CF9B;}
	.st207{fill:#D8CF9A;}
	.st208{fill:#D8CE99;}
	.st209{fill:#D8CE98;}
	.st210{fill:#D8CE97;}
	.st211{fill:#D8CD97;}
	.st212{fill:#D8CD96;}
	.st213{fill:#D8CD95;}
	.st214{fill:#D8CC94;}
	.st215{fill:#D8CC93;}
	.st216{fill:#D8CB92;}
	.st217{fill:#D8CB91;}
	.st218{fill:#D9CB90;}
	.st219{fill:#D9CA8F;}
	.st220{fill:#D9CA8E;}
	.st221{fill:#D9CA8D;}
	.st222{fill:#D9C98D;}
	.st223{fill:#D9C98C;}
	.st224{fill:#D9C98B;}
	.st225{fill:#D9C88A;}
	.st226{fill:#D9C889;}
	.st227{fill:#D9C788;}
	.st228{fill:#DAC787;}
	.st229{fill:#DAC786;}
	.st230{fill:#DAC686;}
	.st231{fill:#DAC685;}
	.st232{fill:#DAC684;}
	.st233{fill:#DAC583;}
	.st234{fill:#DAC582;}
	.st235{fill:#DAC581;}
	.st236{fill:#DAC480;}
	.st237{fill:#DAC47F;}
	.st238{fill:#DAC37E;}
	.st239{fill:#DAC37D;}
	.st240{fill:#DAC37C;}
	.st241{fill:#DBC27C;}
	.st242{fill:#DBC27B;}
	.st243{fill:#DBC27A;}
	.st244{fill:#DBC179;}
	.st245{fill:#DBC178;}
	.st246{fill:#DBC077;}
	.st247{fill:#DBC076;}
	.st248{fill:#DBC075;}
	.st249{fill:#DBBF75;}
	.st250{fill:#DBBF74;}
	.st251{fill:#DBBF73;}
	.st252{fill:#DBBE72;}
	.st253{fill:#DBBE71;}
	.st254{fill:#DCBE70;}
	.st255{fill:#DCBD6F;}
	.st256{fill:#DCBD6E;}
	.st257{fill:#DCBC6D;}
	.st258{fill:#DCBC6C;}
	.st259{fill:#DCBC6B;}
	.st260{fill:#DCBB6A;}
	.st261{fill:#DCBB69;}
	.st262{fill:#DCBA68;}
	.st263{fill:#DCBA67;}
	.st264{fill:#DCBA66;}
	.st265{fill:#DCB965;}
	.st266{fill:#DCB964;}
	.st267{fill:#DCB963;}
	.st268{fill:#DCB863;}
	.st269{fill:#DDB862;}
	.st270{fill:#DDB861;}
	.st271{fill:#DDB760;}
	.st272{fill:#DDB75F;}
	.st273{fill:#DDB65B;}
	.st274{fill:#808080;}
	.st275{fill:url(#SVGID_1_);}
	.st276{fill:#13343B;}
	.st277{clip-path:url(#SVGID_00000111895298233374492950000006773645831644683953_);}
	.st278{clip-path:url(#SVGID_00000073691721283724440180000002834551531603549341_);}
	.st279{clip-path:url(#SVGID_00000006685652765814807940000010378930976558004388_);}
</style>
<g id="Layer_2">
</g>
<g id="Layer_4">
</g>
<g id="Layer_1">
	<g>
		<g>
			<g class="st5">
				<path class="st274" d="M71.7,142.6L71.7,142.6c-39.1,0-70.9-31.7-70.9-70.9v0c0-39.1,31.7-70.9,70.9-70.9h0
					c39.1,0,70.9,31.7,70.9,70.9v0C142.6,110.9,110.9,142.6,71.7,142.6z"/>
			</g>
			<g>
				
					<radialGradient id="SVGID_1_" cx="168.2463" cy="-10.4453" r="241.0119" fx="52.1302" fy="74.3081" gradientUnits="userSpaceOnUse">
					<stop  offset="0.1838" style="stop-color:#C89665"/>
					<stop  offset="0.2299" style="stop-color:#B78C63"/>
					<stop  offset="0.5028" style="stop-color:#6C6254"/>
					<stop  offset="0.7312" style="stop-color:#3D4747"/>
					<stop  offset="0.9036" style="stop-color:#20393E"/>
					<stop  offset="1" style="stop-color:#12343B"/>
				</radialGradient>
				<path class="st275" d="M70.9,141.7L70.9,141.7C31.7,141.7,0,110,0,70.9v0C0,31.7,31.7,0,70.9,0h0c39.1,0,70.9,31.7,70.9,70.9v0
					C141.7,110,110,141.7,70.9,141.7z"/>
			</g>
		</g>
		<g>
			<g>
				<path class="st276" d="M40,66.4l-10.8,4.9c-2.3,1-2.4,4.3-0.1,5.5l8.4,4.3c1.1,0.6,1.8,1.8,1.6,3.1l0,0.4
					c-0.3,2.1-2.5,3.3-4.4,2.3l-18.3-9.6c-1.1-0.6-1.8-1.8-1.6-3.1l0.2-1.3c0.1-1,0.8-1.9,1.7-2.4l20.8-9.6c2.2-1,4.6,0.8,4.3,3.1v0
					C41.6,65.1,40.9,66,40,66.4z"/>
			</g>
			<g>
				<path class="st276" d="M101.8,81l10.8-4.9c2.3-1,2.4-4.3,0.1-5.5l-8.4-4.3c-1.1-0.6-1.8-1.8-1.6-3.1l0-0.4
					c0.3-2.1,2.5-3.3,4.4-2.3l18.3,9.6c1.1,0.6,1.8,1.8,1.6,3.1l-0.2,1.3c-0.1,1-0.8,1.9-1.7,2.4l-20.8,9.6c-2.2,1-4.6-0.8-4.3-3.1
					v0C100.2,82.4,100.8,81.5,101.8,81z"/>
			</g>
			<g>
				<path class="st276" d="M79.2,81c1.3-5,5.1-5.7,8.2-9.9c0.9-1.2,1.6-2.3,1.9-3.3c0.6-2.3-0.6-5.5-2-8.1c-0.8-1.6-0.4-3.5,1-4.6
					l0,0c1.7-1.4,4.2-0.9,5.4,0.9c2.5,4.1,4.4,8.4,3,13.7c-1.4,5.5-4.9,5.8-8.2,10c-0.9,1.3-1.6,2.3-1.8,3.1
					c-0.5,1.9-0.2,4.8,1.5,7.9c0.9,1.5,0.5,3.5-0.9,4.6h0c-1.7,1.4-4.3,1-5.4-0.9C79.3,90.4,78,85.8,79.2,81z"/>
			</g>
			<g>
				<path class="st276" d="M62.2,76.6c1.3-5,5.1-5.7,8.2-9.9c0.9-1.2,1.6-2.3,1.9-3.3c0.6-2.3-0.6-5.5-2-8.1c-0.8-1.6-0.4-3.5,1-4.6
					l0,0c1.7-1.4,4.2-0.9,5.4,0.9c2.5,4.1,4.4,8.4,3,13.7c-1.4,5.5-4.9,5.8-8.2,10c-0.9,1.3-1.6,2.3-1.8,3.1
					c-0.5,1.9-0.2,4.8,1.5,7.9c0.9,1.5,0.5,3.5-0.9,4.6l0,0c-1.7,1.4-4.3,1-5.4-0.9C62.3,85.9,60.9,81.3,62.2,76.6z"/>
			</g>
			<g>
				<path class="st276" d="M45.1,72.1c1.3-5,5.1-5.7,8.2-9.9c0.9-1.2,1.6-2.3,1.9-3.3c0.6-2.3-0.6-5.5-2-8.1c-0.8-1.6-0.4-3.5,1-4.6
					l0,0c1.7-1.4,4.2-0.9,5.4,0.9c2.5,4.1,4.4,8.4,3,13.7c-1.4,5.5-4.9,5.8-8.2,10c-0.9,1.3-1.6,2.3-1.8,3.1
					C52,76,52.3,78.9,54,81.9c0.9,1.5,0.5,3.5-0.9,4.6h0c-1.7,1.4-4.3,1-5.4-0.9C45.3,81.5,43.9,76.9,45.1,72.1z"/>
			</g>
		</g>
	</g>
</g>
<g id="Layer_3">
</g>
</svg>
